#include "MIDISong.h"

// xxd -i Bach-Minuet-G-Minor.mid

const uint8_t MIDISong[4097]{
  0x4d, 0x54, 0x68, 0x64, 0x00, 0x00, 0x00, 0x06, 0x00, 0x01, 0x00, 0x03, 0x04, 0x00, 0x4d, 0x54, 0x72, 0x6b, 0x00,
  0x00, 0x00, 0x4a, 0x00, 0xff, 0x02, 0x0d, 0x50, 0x75, 0x62, 0x6c, 0x69, 0x63, 0x20, 0x44, 0x6f, 0x6d, 0x61, 0x69,
  0x6e, 0x00, 0xff, 0x03, 0x1a, 0x42, 0x61, 0x63, 0x68, 0x20, 0xe2, 0x80, 0x93, 0x20, 0x4d, 0x69, 0x6e, 0x75, 0x65,
  0x74, 0x20, 0x69, 0x6e, 0x20, 0x47, 0x20, 0x6d, 0x69, 0x6e, 0x6f, 0x72, 0x00, 0xff, 0x58, 0x04, 0x03, 0x02, 0x18,
  0x08, 0x00, 0xff, 0x59, 0x02, 0xfe, 0x01, 0x00, 0xff, 0x51, 0x03, 0x06, 0xef, 0x91, 0x8c, 0x80, 0x01, 0xff, 0x2f,
  0x00, 0x4d, 0x54, 0x72, 0x6b, 0x00, 0x00, 0x09, 0xe1, 0x00, 0xff, 0x03, 0x0a, 0x52, 0x69, 0x67, 0x68, 0x74, 0x20,
  0x48, 0x61, 0x6e, 0x64, 0x00, 0xc0, 0x00, 0x00, 0x90, 0x52, 0x40, 0x88, 0x00, 0x80, 0x52, 0x00, 0x00, 0x90, 0x51,
  0x40, 0x88, 0x00, 0x80, 0x51, 0x00, 0x00, 0x90, 0x4f, 0x40, 0x88, 0x00, 0x80, 0x4f, 0x00, 0x00, 0x90, 0x51, 0x40,
  0x88, 0x00, 0x80, 0x51, 0x00, 0x00, 0x90, 0x4a, 0x40, 0x88, 0x00, 0x80, 0x4a, 0x00, 0x00, 0x90, 0x4a, 0x40, 0x88,
  0x00, 0x80, 0x4a, 0x00, 0x00, 0x90, 0x4f, 0x40, 0x88, 0x00, 0x80, 0x4f, 0x00, 0x00, 0x90, 0x43, 0x40, 0x84, 0x00,
  0x80, 0x43, 0x00, 0x00, 0x90, 0x45, 0x40, 0x84, 0x00, 0x80, 0x45, 0x00, 0x00, 0x90, 0x46, 0x40, 0x84, 0x00, 0x80,
  0x46, 0x00, 0x00, 0x90, 0x48, 0x40, 0x84, 0x00, 0x80, 0x48, 0x00, 0x00, 0x90, 0x4a, 0x40, 0x98, 0x00, 0x80, 0x4a,
  0x00, 0x00, 0x90, 0x4b, 0x40, 0x88, 0x00, 0x80, 0x4b, 0x00, 0x00, 0x90, 0x4d, 0x40, 0x84, 0x00, 0x80, 0x4d, 0x00,
  0x00, 0x90, 0x4b, 0x40, 0x84, 0x00, 0x80, 0x4b, 0x00, 0x00, 0x90, 0x4a, 0x40, 0x84, 0x00, 0x80, 0x4a, 0x00, 0x00,
  0x90, 0x48, 0x40, 0x84, 0x00, 0x80, 0x48, 0x00, 0x00, 0x90, 0x4a, 0x40, 0x88, 0x00, 0x80, 0x4a, 0x00, 0x00, 0x90,
  0x4b, 0x40, 0x84, 0x00, 0x80, 0x4b, 0x00, 0x00, 0x90, 0x4a, 0x40, 0x84, 0x00, 0x80, 0x4a, 0x00, 0x00, 0x90, 0x48,
  0x40, 0x84, 0x00, 0x80, 0x48, 0x00, 0x00, 0x90, 0x46, 0x40, 0x84, 0x00, 0x80, 0x46, 0x00, 0x00, 0x90, 0x48, 0x40,
  0x88, 0x00, 0x80, 0x48, 0x00, 0x00, 0x90, 0x4a, 0x40, 0x84, 0x00, 0x80, 0x4a, 0x00, 0x00, 0x90, 0x48, 0x40, 0x84,
  0x00, 0x80, 0x48, 0x00, 0x00, 0x90, 0x46, 0x40, 0x84, 0x00, 0x80, 0x46, 0x00, 0x00, 0x90, 0x48, 0x40, 0x84, 0x00,
  0x80, 0x48, 0x00, 0x00, 0x90, 0x46, 0x40, 0x81, 0x4d, 0x80, 0x46, 0x00, 0x00, 0x90, 0x45, 0x40, 0x81, 0x4d, 0x80,
  0x45, 0x00, 0x00, 0x90, 0x46, 0x40, 0x81, 0x4c, 0x80, 0x46, 0x00, 0x00, 0x90, 0x45, 0x40, 0x81, 0x4d, 0x80, 0x45,
  0x00, 0x00, 0x90, 0x46, 0x40, 0x81, 0x4d, 0x80, 0x46, 0x00, 0x00, 0x90, 0x45, 0x40, 0x90, 0x00, 0x80, 0x45, 0x00,
  0x00, 0x90, 0x52, 0x40, 0x88, 0x00, 0x80, 0x52, 0x00, 0x00, 0x90, 0x52, 0x40, 0x81, 0x2b, 0x80, 0x52, 0x00, 0x00,
  0x90, 0x51, 0x40, 0x81, 0x2a, 0x80, 0x51, 0x00, 0x00, 0x90, 0x52, 0x40, 0x81, 0x2b, 0x80, 0x52, 0x00, 0x00, 0x90,
  0x51, 0x40, 0x84, 0x00, 0x80, 0x51, 0x00, 0x00, 0x90, 0x4f, 0x40, 0x88, 0x00, 0x80, 0x4f, 0x00, 0x00, 0x90, 0x51,
  0x40, 0x88, 0x00, 0x80, 0x51, 0x00, 0x00, 0x90, 0x4a, 0x40, 0x88, 0x00, 0x80, 0x4a, 0x00, 0x00, 0x90, 0x4a, 0x40,
  0x88, 0x00, 0x80, 0x4a, 0x00, 0x00, 0x90, 0x4f, 0x40, 0x88, 0x00, 0x80, 0x4f, 0x00, 0x00, 0x90, 0x43, 0x40, 0x84,
  0x00, 0x80, 0x43, 0x00, 0x00, 0x90, 0x45, 0x40, 0x84, 0x00, 0x80, 0x45, 0x00, 0x00, 0x90, 0x46, 0x40, 0x84, 0x00,
  0x80, 0x46, 0x00, 0x00, 0x90, 0x48, 0x40, 0x84, 0x00, 0x80, 0x48, 0x00, 0x00, 0x90, 0x4a, 0x40, 0x98, 0x00, 0x80,
  0x4a, 0x00, 0x00, 0x90, 0x4d, 0x40, 0x81, 0x00, 0x80, 0x4d, 0x00, 0x00, 0x90, 0x4b, 0x40, 0x81, 0x00, 0x80, 0x4b,
  0x00, 0x00, 0x90, 0x4d, 0x40, 0x86, 0x00, 0x80, 0x4d, 0x00, 0x00, 0x90, 0x4f, 0x40, 0x84, 0x00, 0x80, 0x4f, 0x00,
  0x00, 0x90, 0x4d, 0x40, 0x84, 0x00, 0x80, 0x4d, 0x00, 0x00, 0x90, 0x4b, 0x40, 0x84, 0x00, 0x80, 0x4b, 0x00, 0x00,
  0x90, 0x4a, 0x40, 0x84, 0x00, 0x80, 0x4a, 0x00, 0x00, 0x90, 0x4b, 0x40, 0x88, 0x00, 0x80, 0x4b, 0x00, 0x00, 0x90,
  0x4d, 0x40, 0x84, 0x00, 0x80, 0x4d, 0x00, 0x00, 0x90, 0x4b, 0x40, 0x84, 0x00, 0x80, 0x4b, 0x00, 0x00, 0x90, 0x4a,
  0x40, 0x84, 0x00, 0x80, 0x4a, 0x00, 0x00, 0x90, 0x48, 0x40, 0x84, 0x00, 0x80, 0x48, 0x00, 0x00, 0x90, 0x4a, 0x40,
  0x88, 0x00, 0x80, 0x4a, 0x00, 0x00, 0x90, 0x4f, 0x40, 0x88, 0x00, 0x80, 0x4f, 0x00, 0x00, 0x90, 0x4a, 0x40, 0x81,
  0x2b, 0x80, 0x4a, 0x00, 0x00, 0x90, 0x48, 0x40, 0x81, 0x2a, 0x80, 0x48, 0x00, 0x00, 0x90, 0x4a, 0x40, 0x81, 0x2b,
  0x80, 0x4a, 0x00, 0x00, 0x90, 0x48, 0x40, 0x84, 0x00, 0x80, 0x48, 0x00, 0x00, 0x90, 0x3e, 0x40, 0x00, 0x90, 0x41,
  0x40, 0x00, 0x90, 0x46, 0x40, 0x98, 0x00, 0x80, 0x3e, 0x00, 0x00, 0x80, 0x41, 0x00, 0x00, 0x80, 0x46, 0x00, 0x00,
  0x90, 0x52, 0x40, 0x88, 0x00, 0x80, 0x52, 0x00, 0x00, 0x90, 0x51, 0x40, 0x88, 0x00, 0x80, 0x51, 0x00, 0x00, 0x90,
  0x4f, 0x40, 0x88, 0x00, 0x80, 0x4f, 0x00, 0x00, 0x90, 0x51, 0x40, 0x88, 0x00, 0x80, 0x51, 0x00, 0x00, 0x90, 0x4a,
  0x40, 0x88, 0x00, 0x80, 0x4a, 0x00, 0x00, 0x90, 0x4a, 0x40, 0x88, 0x00, 0x80, 0x4a, 0x00, 0x00, 0x90, 0x4f, 0x40,
  0x88, 0x00, 0x80, 0x4f, 0x00, 0x00, 0x90, 0x43, 0x40, 0x84, 0x00, 0x80, 0x43, 0x00, 0x00, 0x90, 0x45, 0x40, 0x84,
  0x00, 0x80, 0x45, 0x00, 0x00, 0x90, 0x46, 0x40, 0x84, 0x00, 0x80, 0x46, 0x00, 0x00, 0x90, 0x48, 0x40, 0x84, 0x00,
  0x80, 0x48, 0x00, 0x00, 0x90, 0x4a, 0x40, 0x98, 0x00, 0x80, 0x4a, 0x00, 0x00, 0x90, 0x4b, 0x40, 0x88, 0x00, 0x80,
  0x4b, 0x00, 0x00, 0x90, 0x4d, 0x40, 0x84, 0x00, 0x80, 0x4d, 0x00, 0x00, 0x90, 0x4b, 0x40, 0x84, 0x00, 0x80, 0x4b,
  0x00, 0x00, 0x90, 0x4a, 0x40, 0x84, 0x00, 0x80, 0x4a, 0x00, 0x00, 0x90, 0x48, 0x40, 0x84, 0x00, 0x80, 0x48, 0x00,
  0x00, 0x90, 0x4a, 0x40, 0x88, 0x00, 0x80, 0x4a, 0x00, 0x00, 0x90, 0x4b, 0x40, 0x84, 0x00, 0x80, 0x4b, 0x00, 0x00,
  0x90, 0x4a, 0x40, 0x84, 0x00, 0x80, 0x4a, 0x00, 0x00, 0x90, 0x48, 0x40, 0x84, 0x00, 0x80, 0x48, 0x00, 0x00, 0x90,
  0x46, 0x40, 0x84, 0x00, 0x80, 0x46, 0x00, 0x00, 0x90, 0x48, 0x40, 0x88, 0x00, 0x80, 0x48, 0x00, 0x00, 0x90, 0x4a,
  0x40, 0x84, 0x00, 0x80, 0x4a, 0x00, 0x00, 0x90, 0x48, 0x40, 0x84, 0x00, 0x80, 0x48, 0x00, 0x00, 0x90, 0x46, 0x40,
  0x84, 0x00, 0x80, 0x46, 0x00, 0x00, 0x90, 0x48, 0x40, 0x84, 0x00, 0x80, 0x48, 0x00, 0x00, 0x90, 0x46, 0x40, 0x81,
  0x4d, 0x80, 0x46, 0x00, 0x00, 0x90, 0x45, 0x40, 0x81, 0x4d, 0x80, 0x45, 0x00, 0x00, 0x90, 0x46, 0x40, 0x81, 0x4c,
  0x80, 0x46, 0x00, 0x00, 0x90, 0x45, 0x40, 0x81, 0x4d, 0x80, 0x45, 0x00, 0x00, 0x90, 0x46, 0x40, 0x81, 0x4d, 0x80,
  0x46, 0x00, 0x00, 0x90, 0x45, 0x40, 0x90, 0x00, 0x80, 0x45, 0x00, 0x00, 0x90, 0x52, 0x40, 0x88, 0x00, 0x80, 0x52,
  0x00, 0x00, 0x90, 0x52, 0x40, 0x81, 0x2b, 0x80, 0x52, 0x00, 0x00, 0x90, 0x51, 0x40, 0x81, 0x2a, 0x80, 0x51, 0x00,
  0x00, 0x90, 0x52, 0x40, 0x81, 0x2b, 0x80, 0x52, 0x00, 0x00, 0x90, 0x51, 0x40, 0x84, 0x00, 0x80, 0x51, 0x00, 0x00,
  0x90, 0x4f, 0x40, 0x88, 0x00, 0x80, 0x4f, 0x00, 0x00, 0x90, 0x51, 0x40, 0x88, 0x00, 0x80, 0x51, 0x00, 0x00, 0x90,
  0x4a, 0x40, 0x88, 0x00, 0x80, 0x4a, 0x00, 0x00, 0x90, 0x4a, 0x40, 0x88, 0x00, 0x80, 0x4a, 0x00, 0x00, 0x90, 0x4f,
  0x40, 0x88, 0x00, 0x80, 0x4f, 0x00, 0x00, 0x90, 0x43, 0x40, 0x84, 0x00, 0x80, 0x43, 0x00, 0x00, 0x90, 0x45, 0x40,
  0x84, 0x00, 0x80, 0x45, 0x00, 0x00, 0x90, 0x46, 0x40, 0x84, 0x00, 0x80, 0x46, 0x00, 0x00, 0x90, 0x48, 0x40, 0x84,
  0x00, 0x80, 0x48, 0x00, 0x00, 0x90, 0x4a, 0x40, 0x98, 0x00, 0x80, 0x4a, 0x00, 0x00, 0x90, 0x4d, 0x40, 0x81, 0x00,
  0x80, 0x4d, 0x00, 0x00, 0x90, 0x4b, 0x40, 0x81, 0x00, 0x80, 0x4b, 0x00, 0x00, 0x90, 0x4d, 0x40, 0x86, 0x00, 0x80,
  0x4d, 0x00, 0x00, 0x90, 0x4f, 0x40, 0x84, 0x00, 0x80, 0x4f, 0x00, 0x00, 0x90, 0x4d, 0x40, 0x84, 0x00, 0x80, 0x4d,
  0x00, 0x00, 0x90, 0x4b, 0x40, 0x84, 0x00, 0x80, 0x4b, 0x00, 0x00, 0x90, 0x4a, 0x40, 0x84, 0x00, 0x80, 0x4a, 0x00,
  0x00, 0x90, 0x4b, 0x40, 0x88, 0x00, 0x80, 0x4b, 0x00, 0x00, 0x90, 0x4d, 0x40, 0x84, 0x00, 0x80, 0x4d, 0x00, 0x00,
  0x90, 0x4b, 0x40, 0x84, 0x00, 0x80, 0x4b, 0x00, 0x00, 0x90, 0x4a, 0x40, 0x84, 0x00, 0x80, 0x4a, 0x00, 0x00, 0x90,
  0x48, 0x40, 0x84, 0x00, 0x80, 0x48, 0x00, 0x00, 0x90, 0x4a, 0x40, 0x88, 0x00, 0x80, 0x4a, 0x00, 0x00, 0x90, 0x4f,
  0x40, 0x88, 0x00, 0x80, 0x4f, 0x00, 0x00, 0x90, 0x4a, 0x40, 0x81, 0x2b, 0x80, 0x4a, 0x00, 0x00, 0x90, 0x48, 0x40,
  0x81, 0x2a, 0x80, 0x48, 0x00, 0x00, 0x90, 0x4a, 0x40, 0x81, 0x2b, 0x80, 0x4a, 0x00, 0x00, 0x90, 0x48, 0x40, 0x84,
  0x00, 0x80, 0x48, 0x00, 0x00, 0x90, 0x3e, 0x40, 0x00, 0x90, 0x41, 0x40, 0x00, 0x90, 0x46, 0x40, 0x98, 0x00, 0x80,
  0x3e, 0x00, 0x00, 0x80, 0x41, 0x00, 0x00, 0x80, 0x46, 0x00, 0x00, 0x90, 0x4a, 0x40, 0x88, 0x00, 0x80, 0x4a, 0x00,
  0x00, 0x90, 0x46, 0x40, 0x84, 0x00, 0x80, 0x46, 0x00, 0x00, 0x90, 0x48, 0x40, 0x84, 0x00, 0x80, 0x48, 0x00, 0x00,
  0x90, 0x4a, 0x40, 0x84, 0x00, 0x80, 0x4a, 0x00, 0x00, 0x90, 0x4c, 0x40, 0x84, 0x00, 0x80, 0x4c, 0x00, 0x00, 0x90,
  0x4d, 0x40, 0x88, 0x00, 0x80, 0x4d, 0x00, 0x00, 0x90, 0x4f, 0x40, 0x88, 0x00, 0x80, 0x4f, 0x00, 0x00, 0x90, 0x51,
  0x40, 0x88, 0x00, 0x80, 0x51, 0x00, 0x00, 0x90, 0x52, 0x40, 0x88, 0x00, 0x80, 0x52, 0x00, 0x00, 0x90, 0x4f, 0x40,
  0x84, 0x00, 0x80, 0x4f, 0x00, 0x00, 0x90, 0x51, 0x40, 0x84, 0x00, 0x80, 0x51, 0x00, 0x00, 0x90, 0x52, 0x40, 0x84,
  0x00, 0x80, 0x52, 0x00, 0x00, 0x90, 0x4f, 0x40, 0x84, 0x00, 0x80, 0x4f, 0x00, 0x00, 0x90, 0x51, 0x40, 0x88, 0x00,
  0x80, 0x51, 0x00, 0x00, 0x90, 0x4f, 0x40, 0x84, 0x00, 0x80, 0x4f, 0x00, 0x00, 0x90, 0x51, 0x40, 0x84, 0x00, 0x80,
  0x51, 0x00, 0x00, 0x90, 0x4d, 0x40, 0x88, 0x00, 0x80, 0x4d, 0x00, 0x00, 0x90, 0x41, 0x40, 0x84, 0x00, 0x80, 0x41,
  0x00, 0x00, 0x90, 0x43, 0x40, 0x84, 0x00, 0x80, 0x43, 0x00, 0x00, 0x90, 0x45, 0x40, 0x84, 0x00, 0x80, 0x45, 0x00,
  0x00, 0x90, 0x46, 0x40, 0x84, 0x00, 0x80, 0x46, 0x00, 0x00, 0x90, 0x48, 0x40, 0x84, 0x00, 0x80, 0x48, 0x00, 0x00,
  0x90, 0x4a, 0x40, 0x84, 0x00, 0x80, 0x4a, 0x00, 0x00, 0x90, 0x4b, 0x40, 0x88, 0x00, 0x80, 0x4b, 0x00, 0x00, 0x90,
  0x4b, 0x40, 0x81, 0x2b, 0x80, 0x4b, 0x00, 0x00, 0x90, 0x4a, 0x40, 0x81, 0x2a, 0x80, 0x4a, 0x00, 0x00, 0x90, 0x4b,
  0x40, 0x81, 0x2b, 0x80, 0x4b, 0x00, 0x00, 0x90, 0x4a, 0x40, 0x84, 0x00, 0x80, 0x4a, 0x00, 0x00, 0x90, 0x48, 0x40,
  0x88, 0x00, 0x80, 0x48, 0x00, 0x00, 0x90, 0x4d, 0x40, 0x88, 0x00, 0x80, 0x4d, 0x00, 0x00, 0x90, 0x46, 0x40, 0x88,
  0x00, 0x80, 0x46, 0x00, 0x00, 0x90, 0x45, 0x40, 0x88, 0x00, 0x80, 0x45, 0x00, 0x00, 0x90, 0x46, 0x40, 0x98, 0x00,
  0x80, 0x46, 0x00, 0x00, 0x90, 0x43, 0x40, 0x88, 0x00, 0x80, 0x43, 0x00, 0x00, 0x90, 0x4a, 0x40, 0x84, 0x00, 0x80,
  0x4a, 0x00, 0x00, 0x90, 0x48, 0x40, 0x84, 0x00, 0x80, 0x48, 0x00, 0x00, 0x90, 0x4a, 0x40, 0x88, 0x00, 0x80, 0x4a,
  0x00, 0x00, 0x90, 0x43, 0x40, 0x88, 0x00, 0x80, 0x43, 0x00, 0x00, 0x90, 0x4b, 0x40, 0x84, 0x00, 0x80, 0x4b, 0x00,
  0x00, 0x90, 0x4a, 0x40, 0x84, 0x00, 0x80, 0x4a, 0x00, 0x00, 0x90, 0x4b, 0x40, 0x88, 0x00, 0x80, 0x4b, 0x00, 0x00,
  0x90, 0x43, 0x40, 0x84, 0x00, 0x80, 0x43, 0x00, 0x00, 0x90, 0x4a, 0x40, 0x84, 0x00, 0x80, 0x4a, 0x00, 0x00, 0x90,
  0x42, 0x40, 0x84, 0x00, 0x80, 0x42, 0x00, 0x00, 0x90, 0x48, 0x40, 0x84, 0x00, 0x80, 0x48, 0x00, 0x00, 0x90, 0x43,
  0x40, 0x84, 0x00, 0x80, 0x43, 0x00, 0x00, 0x90, 0x46, 0x40, 0x84, 0x00, 0x80, 0x46, 0x00, 0x00, 0x90, 0x45, 0x40,
  0x90, 0x00, 0x80, 0x45, 0x00, 0x88, 0x00, 0x90, 0x3e, 0x40, 0x84, 0x00, 0x80, 0x3e, 0x00, 0x00, 0x90, 0x40, 0x40,
  0x84, 0x00, 0x80, 0x40, 0x00, 0x00, 0x90, 0x42, 0x40, 0x84, 0x00, 0x80, 0x42, 0x00, 0x00, 0x90, 0x43, 0x40, 0x84,
  0x00, 0x80, 0x43, 0x00, 0x00, 0x90, 0x45, 0x40, 0x84, 0x00, 0x80, 0x45, 0x00, 0x00, 0x90, 0x46, 0x40, 0x84, 0x00,
  0x80, 0x46, 0x00, 0x00, 0x90, 0x48, 0x40, 0x88, 0x00, 0x80, 0x48, 0x00, 0x00, 0x90, 0x46, 0x40, 0x88, 0x00, 0x80,
  0x46, 0x00, 0x00, 0x90, 0x45, 0x40, 0x88, 0x00, 0x80, 0x45, 0x00, 0x00, 0x90, 0x48, 0x40, 0x55, 0x80, 0x48, 0x00,
  0x00, 0x90, 0x46, 0x40, 0x56, 0x80, 0x46, 0x00, 0x00, 0x90, 0x48, 0x40, 0x55, 0x80, 0x48, 0x00, 0x00, 0x90, 0x46,
  0x40, 0x82, 0x00, 0x80, 0x46, 0x00, 0x00, 0x90, 0x48, 0x40, 0x82, 0x00, 0x80, 0x48, 0x00, 0x00, 0x90, 0x4a, 0x40,
  0x82, 0x00, 0x80, 0x4a, 0x00, 0x00, 0x90, 0x43, 0x40, 0x88, 0x00, 0x80, 0x43, 0x00, 0x00, 0x90, 0x43, 0x40, 0x81,
  0x2b, 0x80, 0x43, 0x00, 0x00, 0x90, 0x42, 0x40, 0x81, 0x2a, 0x80, 0x42, 0x00, 0x00, 0x90, 0x43, 0x40, 0x81, 0x2b,
  0x80, 0x43, 0x00, 0x00, 0x90, 0x42, 0x40, 0x84, 0x00, 0x80, 0x42, 0x00, 0x00, 0x90, 0x3a, 0x40, 0x00, 0x90, 0x3e,
  0x40, 0x00, 0x90, 0x43, 0x40, 0x98, 0x00, 0x80, 0x3a, 0x00, 0x00, 0x80, 0x3e, 0x00, 0x00, 0x80, 0x43, 0x00, 0x00,
  0x90, 0x4a, 0x40, 0x88, 0x00, 0x80, 0x4a, 0x00, 0x00, 0x90, 0x46, 0x40, 0x84, 0x00, 0x80, 0x46, 0x00, 0x00, 0x90,
  0x48, 0x40, 0x84, 0x00, 0x80, 0x48, 0x00, 0x00, 0x90, 0x4a, 0x40, 0x84, 0x00, 0x80, 0x4a, 0x00, 0x00, 0x90, 0x4c,
  0x40, 0x84, 0x00, 0x80, 0x4c, 0x00, 0x00, 0x90, 0x4d, 0x40, 0x88, 0x00, 0x80, 0x4d, 0x00, 0x00, 0x90, 0x4f, 0x40,
  0x88, 0x00, 0x80, 0x4f, 0x00, 0x00, 0x90, 0x51, 0x40, 0x88, 0x00, 0x80, 0x51, 0x00, 0x00, 0x90, 0x52, 0x40, 0x88,
  0x00, 0x80, 0x52, 0x00, 0x00, 0x90, 0x4f, 0x40, 0x84, 0x00, 0x80, 0x4f, 0x00, 0x00, 0x90, 0x51, 0x40, 0x84, 0x00,
  0x80, 0x51, 0x00, 0x00, 0x90, 0x52, 0x40, 0x84, 0x00, 0x80, 0x52, 0x00, 0x00, 0x90, 0x4f, 0x40, 0x84, 0x00, 0x80,
  0x4f, 0x00, 0x00, 0x90, 0x51, 0x40, 0x88, 0x00, 0x80, 0x51, 0x00, 0x00, 0x90, 0x4f, 0x40, 0x84, 0x00, 0x80, 0x4f,
  0x00, 0x00, 0x90, 0x51, 0x40, 0x84, 0x00, 0x80, 0x51, 0x00, 0x00, 0x90, 0x4d, 0x40, 0x88, 0x00, 0x80, 0x4d, 0x00,
  0x00, 0x90, 0x41, 0x40, 0x84, 0x00, 0x80, 0x41, 0x00, 0x00, 0x90, 0x43, 0x40, 0x84, 0x00, 0x80, 0x43, 0x00, 0x00,
  0x90, 0x45, 0x40, 0x84, 0x00, 0x80, 0x45, 0x00, 0x00, 0x90, 0x46, 0x40, 0x84, 0x00, 0x80, 0x46, 0x00, 0x00, 0x90,
  0x48, 0x40, 0x84, 0x00, 0x80, 0x48, 0x00, 0x00, 0x90, 0x4a, 0x40, 0x84, 0x00, 0x80, 0x4a, 0x00, 0x00, 0x90, 0x4b,
  0x40, 0x88, 0x00, 0x80, 0x4b, 0x00, 0x00, 0x90, 0x4b, 0x40, 0x81, 0x2b, 0x80, 0x4b, 0x00, 0x00, 0x90, 0x4a, 0x40,
  0x81, 0x2a, 0x80, 0x4a, 0x00, 0x00, 0x90, 0x4b, 0x40, 0x81, 0x2b, 0x80, 0x4b, 0x00, 0x00, 0x90, 0x4a, 0x40, 0x84,
  0x00, 0x80, 0x4a, 0x00, 0x00, 0x90, 0x48, 0x40, 0x88, 0x00, 0x80, 0x48, 0x00, 0x00, 0x90, 0x4d, 0x40, 0x88, 0x00,
  0x80, 0x4d, 0x00, 0x00, 0x90, 0x46, 0x40, 0x88, 0x00, 0x80, 0x46, 0x00, 0x00, 0x90, 0x45, 0x40, 0x88, 0x00, 0x80,
  0x45, 0x00, 0x00, 0x90, 0x46, 0x40, 0x98, 0x00, 0x80, 0x46, 0x00, 0x00, 0x90, 0x43, 0x40, 0x88, 0x00, 0x80, 0x43,
  0x00, 0x00, 0x90, 0x4a, 0x40, 0x84, 0x00, 0x80, 0x4a, 0x00, 0x00, 0x90, 0x48, 0x40, 0x84, 0x00, 0x80, 0x48, 0x00,
  0x00, 0x90, 0x4a, 0x40, 0x88, 0x00, 0x80, 0x4a, 0x00, 0x00, 0x90, 0x43, 0x40, 0x88, 0x00, 0x80, 0x43, 0x00, 0x00,
  0x90, 0x4b, 0x40, 0x84, 0x00, 0x80, 0x4b, 0x00, 0x00, 0x90, 0x4a, 0x40, 0x84, 0x00, 0x80, 0x4a, 0x00, 0x00, 0x90,
  0x4b, 0x40, 0x88, 0x00, 0x80, 0x4b, 0x00, 0x00, 0x90, 0x43, 0x40, 0x84, 0x00, 0x80, 0x43, 0x00, 0x00, 0x90, 0x4a,
  0x40, 0x84, 0x00, 0x80, 0x4a, 0x00, 0x00, 0x90, 0x42, 0x40, 0x84, 0x00, 0x80, 0x42, 0x00, 0x00, 0x90, 0x48, 0x40,
  0x84, 0x00, 0x80, 0x48, 0x00, 0x00, 0x90, 0x43, 0x40, 0x84, 0x00, 0x80, 0x43, 0x00, 0x00, 0x90, 0x46, 0x40, 0x84,
  0x00, 0x80, 0x46, 0x00, 0x00, 0x90, 0x45, 0x40, 0x90, 0x00, 0x80, 0x45, 0x00, 0x88, 0x00, 0x90, 0x3e, 0x40, 0x84,
  0x00, 0x80, 0x3e, 0x00, 0x00, 0x90, 0x40, 0x40, 0x84, 0x00, 0x80, 0x40, 0x00, 0x00, 0x90, 0x42, 0x40, 0x84, 0x00,
  0x80, 0x42, 0x00, 0x00, 0x90, 0x43, 0x40, 0x84, 0x00, 0x80, 0x43, 0x00, 0x00, 0x90, 0x45, 0x40, 0x84, 0x00, 0x80,
  0x45, 0x00, 0x00, 0x90, 0x46, 0x40, 0x84, 0x00, 0x80, 0x46, 0x00, 0x00, 0x90, 0x48, 0x40, 0x88, 0x00, 0x80, 0x48,
  0x00, 0x00, 0x90, 0x46, 0x40, 0x88, 0x00, 0x80, 0x46, 0x00, 0x00, 0x90, 0x45, 0x40, 0x88, 0x00, 0x80, 0x45, 0x00,
  0x00, 0x90, 0x48, 0x40, 0x55, 0x80, 0x48, 0x00, 0x00, 0x90, 0x46, 0x40, 0x56, 0x80, 0x46, 0x00, 0x00, 0x90, 0x48,
  0x40, 0x55, 0x80, 0x48, 0x00, 0x00, 0x90, 0x46, 0x40, 0x82, 0x00, 0x80, 0x46, 0x00, 0x00, 0x90, 0x48, 0x40, 0x82,
  0x00, 0x80, 0x48, 0x00, 0x00, 0x90, 0x4a, 0x40, 0x82, 0x00, 0x80, 0x4a, 0x00, 0x00, 0x90, 0x43, 0x40, 0x88, 0x00,
  0x80, 0x43, 0x00, 0x00, 0x90, 0x43, 0x40, 0x81, 0x2b, 0x80, 0x43, 0x00, 0x00, 0x90, 0x42, 0x40, 0x81, 0x2a, 0x80,
  0x42, 0x00, 0x00, 0x90, 0x43, 0x40, 0x81, 0x2b, 0x80, 0x43, 0x00, 0x00, 0x90, 0x42, 0x40, 0x84, 0x00, 0x80, 0x42,
  0x00, 0x00, 0x90, 0x3a, 0x40, 0x00, 0x90, 0x3e, 0x40, 0x00, 0x90, 0x43, 0x40, 0x98, 0x00, 0x80, 0x3a, 0x00, 0x00,
  0x80, 0x3e, 0x00, 0x00, 0x80, 0x43, 0x00, 0x01, 0xff, 0x2f, 0x00, 0x4d, 0x54, 0x72, 0x6b, 0x00, 0x00, 0x05, 0xb0,
  0x00, 0xff, 0x03, 0x09, 0x4c, 0x65, 0x66, 0x74, 0x20, 0x48, 0x61, 0x6e, 0x64, 0x00, 0xc1, 0x00, 0x00, 0x91, 0x37,
  0x40, 0x98, 0x00, 0x81, 0x37, 0x00, 0x00, 0x91, 0x35, 0x40, 0x98, 0x00, 0x81, 0x35, 0x00, 0x00, 0x91, 0x33, 0x40,
  0x98, 0x00, 0x81, 0x33, 0x00, 0x00, 0x91, 0x32, 0x40, 0x88, 0x00, 0x81, 0x32, 0x00, 0x00, 0x91, 0x3e, 0x40, 0x84,
  0x00, 0x81, 0x3e, 0x00, 0x00, 0x91, 0x3c, 0x40, 0x84, 0x00, 0x81, 0x3c, 0x00, 0x00, 0x91, 0x3a, 0x40, 0x84, 0x00,
  0x81, 0x3a, 0x00, 0x00, 0x91, 0x39, 0x40, 0x84, 0x00, 0x81, 0x39, 0x00, 0x00, 0x91, 0x37, 0x40, 0x00, 0x91, 0x3a,
  0x40, 0x90, 0x00, 0x81, 0x37, 0x00, 0x00, 0x81, 0x3a, 0x00, 0x00, 0x91, 0x39, 0x40, 0x88, 0x00, 0x81, 0x39, 0x00,
  0x00, 0x91, 0x3a, 0x40, 0x90, 0x00, 0x81, 0x3a, 0x00, 0x00, 0x91, 0x37, 0x40, 0x88, 0x00, 0x81, 0x37, 0x00, 0x00,
  0x91, 0x39, 0x40, 0x88, 0x00, 0x81, 0x39, 0x00, 0x00, 0x91, 0x36, 0x40, 0x88, 0x00, 0x81, 0x36, 0x00, 0x00, 0x91,
  0x37, 0x40, 0x88, 0x00, 0x81, 0x37, 0x00, 0x00, 0x91, 0x32, 0x40, 0x88, 0x00, 0x81, 0x32, 0x00, 0x00, 0x91, 0x3e,
  0x40, 0x84, 0x00, 0x81, 0x3e, 0x00, 0x00, 0x91, 0x3c, 0x40, 0x84, 0x00, 0x81, 0x3c, 0x00, 0x00, 0x91, 0x3a, 0x40,
  0x84, 0x00, 0x81, 0x3a, 0x00, 0x00, 0x91, 0x39, 0x40, 0x84, 0x00, 0x81, 0x39, 0x00, 0x00, 0x91, 0x37, 0x40, 0x98,
  0x00, 0x81, 0x37, 0x00, 0x00, 0x91, 0x35, 0x40, 0x98, 0x00, 0x81, 0x35, 0x00, 0x00, 0x91, 0x33, 0x40, 0x98, 0x00,
  0x81, 0x33, 0x00, 0x00, 0x91, 0x32, 0x40, 0x88, 0x00, 0x81, 0x32, 0x00, 0x00, 0x91, 0x3e, 0x40, 0x84, 0x00, 0x81,
  0x3e, 0x00, 0x00, 0x91, 0x3c, 0x40, 0x84, 0x00, 0x81, 0x3c, 0x00, 0x00, 0x91, 0x3b, 0x40, 0x84, 0x00, 0x81, 0x3b,
  0x00, 0x00, 0x91, 0x39, 0x40, 0x84, 0x00, 0x81, 0x39, 0x00, 0x00, 0x91, 0x3b, 0x40, 0x00, 0x91, 0x3e, 0x40, 0x98,
  0x00, 0x81, 0x3b, 0x00, 0x00, 0x81, 0x3e, 0x00, 0x00, 0x91, 0x3c, 0x40, 0x88, 0x00, 0x81, 0x3c, 0x00, 0x00, 0x91,
  0x39, 0x40, 0x88, 0x00, 0x81, 0x39, 0x00, 0x00, 0x91, 0x35, 0x40, 0x88, 0x00, 0x81, 0x35, 0x00, 0x00, 0x91, 0x3a,
  0x40, 0x88, 0x00, 0x81, 0x3a, 0x00, 0x00, 0x91, 0x33, 0x40, 0x88, 0x00, 0x81, 0x33, 0x00, 0x00, 0x91, 0x35, 0x40,
  0x00, 0x91, 0x39, 0x40, 0x88, 0x00, 0x81, 0x35, 0x00, 0x00, 0x81, 0x39, 0x00, 0x00, 0x91, 0x3a, 0x40, 0x88, 0x00,
  0x81, 0x3a, 0x00, 0x00, 0x91, 0x2e, 0x40, 0x90, 0x00, 0x81, 0x2e, 0x00, 0x00, 0x91, 0x37, 0x40, 0x98, 0x00, 0x81,
  0x37, 0x00, 0x00, 0x91, 0x35, 0x40, 0x98, 0x00, 0x81, 0x35, 0x00, 0x00, 0x91, 0x33, 0x40, 0x98, 0x00, 0x81, 0x33,
  0x00, 0x00, 0x91, 0x32, 0x40, 0x88, 0x00, 0x81, 0x32, 0x00, 0x00, 0x91, 0x3e, 0x40, 0x84, 0x00, 0x81, 0x3e, 0x00,
  0x00, 0x91, 0x3c, 0x40, 0x84, 0x00, 0x81, 0x3c, 0x00, 0x00, 0x91, 0x3a, 0x40, 0x84, 0x00, 0x81, 0x3a, 0x00, 0x00,
  0x91, 0x39, 0x40, 0x84, 0x00, 0x81, 0x39, 0x00, 0x00, 0x91, 0x37, 0x40, 0x00, 0x91, 0x3a, 0x40, 0x90, 0x00, 0x81,
  0x37, 0x00, 0x00, 0x81, 0x3a, 0x00, 0x00, 0x91, 0x39, 0x40, 0x88, 0x00, 0x81, 0x39, 0x00, 0x00, 0x91, 0x3a, 0x40,
  0x90, 0x00, 0x81, 0x3a, 0x00, 0x00, 0x91, 0x37, 0x40, 0x88, 0x00, 0x81, 0x37, 0x00, 0x00, 0x91, 0x39, 0x40, 0x88,
  0x00, 0x81, 0x39, 0x00, 0x00, 0x91, 0x36, 0x40, 0x88, 0x00, 0x81, 0x36, 0x00, 0x00, 0x91, 0x37, 0x40, 0x88, 0x00,
  0x81, 0x37, 0x00, 0x00, 0x91, 0x32, 0x40, 0x88, 0x00, 0x81, 0x32, 0x00, 0x00, 0x91, 0x3e, 0x40, 0x84, 0x00, 0x81,
  0x3e, 0x00, 0x00, 0x91, 0x3c, 0x40, 0x84, 0x00, 0x81, 0x3c, 0x00, 0x00, 0x91, 0x3a, 0x40, 0x84, 0x00, 0x81, 0x3a,
  0x00, 0x00, 0x91, 0x39, 0x40, 0x84, 0x00, 0x81, 0x39, 0x00, 0x00, 0x91, 0x37, 0x40, 0x98, 0x00, 0x81, 0x37, 0x00,
  0x00, 0x91, 0x35, 0x40, 0x98, 0x00, 0x81, 0x35, 0x00, 0x00, 0x91, 0x33, 0x40, 0x98, 0x00, 0x81, 0x33, 0x00, 0x00,
  0x91, 0x32, 0x40, 0x88, 0x00, 0x81, 0x32, 0x00, 0x00, 0x91, 0x3e, 0x40, 0x84, 0x00, 0x81, 0x3e, 0x00, 0x00, 0x91,
  0x3c, 0x40, 0x84, 0x00, 0x81, 0x3c, 0x00, 0x00, 0x91, 0x3b, 0x40, 0x84, 0x00, 0x81, 0x3b, 0x00, 0x00, 0x91, 0x39,
  0x40, 0x84, 0x00, 0x81, 0x39, 0x00, 0x00, 0x91, 0x3b, 0x40, 0x00, 0x91, 0x3e, 0x40, 0x98, 0x00, 0x81, 0x3b, 0x00,
  0x00, 0x81, 0x3e, 0x00, 0x00, 0x91, 0x3c, 0x40, 0x88, 0x00, 0x81, 0x3c, 0x00, 0x00, 0x91, 0x39, 0x40, 0x88, 0x00,
  0x81, 0x39, 0x00, 0x00, 0x91, 0x35, 0x40, 0x88, 0x00, 0x81, 0x35, 0x00, 0x00, 0x91, 0x3a, 0x40, 0x88, 0x00, 0x81,
  0x3a, 0x00, 0x00, 0x91, 0x33, 0x40, 0x88, 0x00, 0x81, 0x33, 0x00, 0x00, 0x91, 0x35, 0x40, 0x00, 0x91, 0x39, 0x40,
  0x88, 0x00, 0x81, 0x35, 0x00, 0x00, 0x81, 0x39, 0x00, 0x00, 0x91, 0x3a, 0x40, 0x88, 0x00, 0x81, 0x3a, 0x00, 0x00,
  0x91, 0x2e, 0x40, 0x90, 0x00, 0x81, 0x2e, 0x00, 0x00, 0x91, 0x3a, 0x40, 0x98, 0x00, 0x81, 0x3a, 0x00, 0x00, 0x91,
  0x39, 0x40, 0x88, 0x00, 0x81, 0x39, 0x00, 0x00, 0x91, 0x37, 0x40, 0x88, 0x00, 0x81, 0x37, 0x00, 0x00, 0x91, 0x35,
  0x40, 0x88, 0x00, 0x81, 0x35, 0x00, 0x00, 0x91, 0x37, 0x40, 0x88, 0x00, 0x81, 0x37, 0x00, 0x00, 0x91, 0x34, 0x40,
  0x88, 0x00, 0x81, 0x34, 0x00, 0x00, 0x91, 0x30, 0x40, 0x88, 0x00, 0x81, 0x30, 0x00, 0x00, 0x91, 0x35, 0x40, 0x90,
  0x00, 0x81, 0x35, 0x00, 0x88, 0x00, 0x91, 0x39, 0x40, 0x88, 0x00, 0x81, 0x39, 0x00, 0x00, 0x91, 0x37, 0x40, 0x88,
  0x00, 0x81, 0x37, 0x00, 0x00, 0x91, 0x35, 0x40, 0x88, 0x00, 0x81, 0x35, 0x00, 0x00, 0x91, 0x37, 0x40, 0x88, 0x00,
  0x81, 0x37, 0x00, 0x00, 0x91, 0x35, 0x40, 0x88, 0x00, 0x81, 0x35, 0x00, 0x00, 0x91, 0x33, 0x40, 0x88, 0x00, 0x81,
  0x33, 0x00, 0x00, 0x91, 0x32, 0x40, 0x88, 0x00, 0x81, 0x32, 0x00, 0x00, 0x91, 0x33, 0x40, 0x88, 0x00, 0x81, 0x33,
  0x00, 0x00, 0x91, 0x35, 0x40, 0x88, 0x00, 0x81, 0x35, 0x00, 0x00, 0x91, 0x2e, 0x40, 0x88, 0x00, 0x81, 0x2e, 0x00,
  0x00, 0x91, 0x3e, 0x40, 0x88, 0x00, 0x81, 0x3e, 0x00, 0x00, 0x91, 0x3c, 0x40, 0x88, 0x00, 0x81, 0x3c, 0x00, 0x00,
  0x91, 0x3b, 0x40, 0x00, 0x91, 0x3e, 0x40, 0x98, 0x00, 0x81, 0x3b, 0x00, 0x00, 0x81, 0x3e, 0x00, 0x00, 0x91, 0x3c,
  0x40, 0x98, 0x00, 0x81, 0x3c, 0x00, 0x00, 0x91, 0x3a, 0x40, 0x88, 0x00, 0x81, 0x3a, 0x00, 0x00, 0x91, 0x39, 0x40,
  0x88, 0x00, 0x81, 0x39, 0x00, 0x00, 0x91, 0x37, 0x40, 0x88, 0x00, 0x81, 0x37, 0x00, 0x00, 0x91, 0x3e, 0x40, 0x88,
  0x00, 0x81, 0x3e, 0x00, 0x00, 0x91, 0x39, 0x40, 0x84, 0x00, 0x81, 0x39, 0x00, 0x00, 0x91, 0x37, 0x40, 0x84, 0x00,
  0x81, 0x37, 0x00, 0x00, 0x91, 0x36, 0x40, 0x84, 0x00, 0x81, 0x36, 0x00, 0x00, 0x91, 0x34, 0x40, 0x84, 0x00, 0x81,
  0x34, 0x00, 0x00, 0x91, 0x32, 0x40, 0x90, 0x00, 0x81, 0x32, 0x00, 0x88, 0x00, 0x91, 0x33, 0x40, 0x88, 0x00, 0x81,
  0x33, 0x00, 0x00, 0x91, 0x32, 0x40, 0x88, 0x00, 0x81, 0x32, 0x00, 0x00, 0x91, 0x30, 0x40, 0x88, 0x00, 0x81, 0x30,
  0x00, 0x00, 0x91, 0x2e, 0x40, 0x88, 0x00, 0x81, 0x2e, 0x00, 0x00, 0x91, 0x30, 0x40, 0x88, 0x00, 0x81, 0x30, 0x00,
  0x00, 0x91, 0x32, 0x40, 0x88, 0x00, 0x81, 0x32, 0x00, 0x00, 0x91, 0x37, 0x40, 0x88, 0x00, 0x81, 0x37, 0x00, 0x00,
  0x91, 0x2b, 0x40, 0x90, 0x00, 0x81, 0x2b, 0x00, 0x00, 0x91, 0x3a, 0x40, 0x98, 0x00, 0x81, 0x3a, 0x00, 0x00, 0x91,
  0x39, 0x40, 0x88, 0x00, 0x81, 0x39, 0x00, 0x00, 0x91, 0x37, 0x40, 0x88, 0x00, 0x81, 0x37, 0x00, 0x00, 0x91, 0x35,
  0x40, 0x88, 0x00, 0x81, 0x35, 0x00, 0x00, 0x91, 0x37, 0x40, 0x88, 0x00, 0x81, 0x37, 0x00, 0x00, 0x91, 0x34, 0x40,
  0x88, 0x00, 0x81, 0x34, 0x00, 0x00, 0x91, 0x30, 0x40, 0x88, 0x00, 0x81, 0x30, 0x00, 0x00, 0x91, 0x35, 0x40, 0x90,
  0x00, 0x81, 0x35, 0x00, 0x88, 0x00, 0x91, 0x39, 0x40, 0x88, 0x00, 0x81, 0x39, 0x00, 0x00, 0x91, 0x37, 0x40, 0x88,
  0x00, 0x81, 0x37, 0x00, 0x00, 0x91, 0x35, 0x40, 0x88, 0x00, 0x81, 0x35, 0x00, 0x00, 0x91, 0x37, 0x40, 0x88, 0x00,
  0x81, 0x37, 0x00, 0x00, 0x91, 0x35, 0x40, 0x88, 0x00, 0x81, 0x35, 0x00, 0x00, 0x91, 0x33, 0x40, 0x88, 0x00, 0x81,
  0x33, 0x00, 0x00, 0x91, 0x32, 0x40, 0x88, 0x00, 0x81, 0x32, 0x00, 0x00, 0x91, 0x33, 0x40, 0x88, 0x00, 0x81, 0x33,
  0x00, 0x00, 0x91, 0x35, 0x40, 0x88, 0x00, 0x81, 0x35, 0x00, 0x00, 0x91, 0x2e, 0x40, 0x88, 0x00, 0x81, 0x2e, 0x00,
  0x00, 0x91, 0x3e, 0x40, 0x88, 0x00, 0x81, 0x3e, 0x00, 0x00, 0x91, 0x3c, 0x40, 0x88, 0x00, 0x81, 0x3c, 0x00, 0x00,
  0x91, 0x3b, 0x40, 0x00, 0x91, 0x3e, 0x40, 0x98, 0x00, 0x81, 0x3b, 0x00, 0x00, 0x81, 0x3e, 0x00, 0x00, 0x91, 0x3c,
  0x40, 0x98, 0x00, 0x81, 0x3c, 0x00, 0x00, 0x91, 0x3a, 0x40, 0x88, 0x00, 0x81, 0x3a, 0x00, 0x00, 0x91, 0x39, 0x40,
  0x88, 0x00, 0x81, 0x39, 0x00, 0x00, 0x91, 0x37, 0x40, 0x88, 0x00, 0x81, 0x37, 0x00, 0x00, 0x91, 0x3e, 0x40, 0x88,
  0x00, 0x81, 0x3e, 0x00, 0x00, 0x91, 0x39, 0x40, 0x84, 0x00, 0x81, 0x39, 0x00, 0x00, 0x91, 0x37, 0x40, 0x84, 0x00,
  0x81, 0x37, 0x00, 0x00, 0x91, 0x36, 0x40, 0x84, 0x00, 0x81, 0x36, 0x00, 0x00, 0x91, 0x34, 0x40, 0x84, 0x00, 0x81,
  0x34, 0x00, 0x00, 0x91, 0x32, 0x40, 0x90, 0x00, 0x81, 0x32, 0x00, 0x88, 0x00, 0x91, 0x33, 0x40, 0x88, 0x00, 0x81,
  0x33, 0x00, 0x00, 0x91, 0x32, 0x40, 0x88, 0x00, 0x81, 0x32, 0x00, 0x00, 0x91, 0x30, 0x40, 0x88, 0x00, 0x81, 0x30,
  0x00, 0x00, 0x91, 0x2e, 0x40, 0x88, 0x00, 0x81, 0x2e, 0x00, 0x00, 0x91, 0x30, 0x40, 0x88, 0x00, 0x81, 0x30, 0x00,
  0x00, 0x91, 0x32, 0x40, 0x88, 0x00, 0x81, 0x32, 0x00, 0x00, 0x91, 0x37, 0x40, 0x88, 0x00, 0x81, 0x37, 0x00, 0x00,
  0x91, 0x2b, 0x40, 0x90, 0x00, 0x81, 0x2b, 0x00, 0x01, 0xff, 0x2f, 0x00,
};
